<svg width="120" height="120" viewBox="0 0 100 100" class="" xmlns="http://www.w3.org/2000/svg"><defs><linearGradient id="sweetGradient-logo-kaex6uc6f" x1="0%" y1="0%" x2="100%" y2="100%"><stop offset="0%" stop-color="#FFF8E7"></stop><stop offset="50%" stop-color="#F5E6CC"></stop><stop offset="100%" stop-color="#FAD7B6"></stop></linearGradient><linearGradient id="candyGradient-logo-kaex6uc6f" x1="0%" y1="0%" x2="100%" y2="100%"><stop offset="0%" stop-color="#A0522D"></stop><stop offset="100%" stop-color="#4A2C17"></stop></linearGradient><linearGradient id="textGradient-logo-kaex6uc6f" x1="0%" y1="0%" x2="100%" y2="100%"><stop offset="0%" stop-color="#A0522D"></stop><stop offset="50%" stop-color="#4A2C17"></stop><stop offset="100%" stop-color="#A0522D"></stop></linearGradient><filter id="shadow-logo-kaex6uc6f" x="-20%" y="-20%" width="140%" height="140%"><feDropShadow dx="2" dy="2" stdDeviation="3" flood-opacity="0.3"></feDropShadow></filter><path id="textPath-logo-kaex6uc6f" d=" M 5,50 A 45,45 0 0,0 95,50 " fill="none"></path></defs><circle cx="50" cy="50" r="47" fill="url(#sweetGradient-logo-kaex6uc6f)" stroke="#A0522D" stroke-width="2" filter="url(#shadow-logo-kaex6uc6f)"></circle><circle cx="50" cy="45" r="18" fill="#FF6B9D"></circle><circle cx="50" cy="45" r="15" fill="#FF69B4"></circle><circle cx="50" cy="45" r="12" fill="#FF1493"></circle><path d="M50 33 Q62 33 62 45 Q62 57 50 57 Q38 57 38 45 Q38 39 44 39 Q50 39 50 45 Q50 48 48 48" stroke="#FFFFFF" stroke-width="2.5" fill="none" opacity="0.9" stroke-linecap="round"></path><rect x="48.5" y="63" width="3" height="22" fill="#D2691E"></rect><rect x="49" y="63" width="2" height="22" fill="#CD853F"></rect><ellipse cx="50" cy="63" rx="2" ry="1.5" fill="#8B4513"></ellipse><ellipse cx="45" cy="38" rx="3" ry="2" fill="#FFFFFF" opacity="0.6"></ellipse><circle cx="52" cy="41" r="1.5" fill="#FFFFFF" opacity="0.4"></circle><g opacity="0.6"><path d="M20 25 Q28 18 38 22" stroke="#A0522D" stroke-width="1.5" fill="none" stroke-dasharray="3,2"></path><path d="M62 22 Q72 18 80 25" stroke="#A0522D" stroke-width="1.5" fill="none" stroke-dasharray="3,2"></path><path d="M20 75 Q28 82 38 78" stroke="#A0522D" stroke-width="1.5" fill="none" stroke-dasharray="3,2"></path><path d="M62 78 Q72 82 80 75" stroke="#A0522D" stroke-width="1.5" fill="none" stroke-dasharray="3,2"></path></g><circle cx="20" cy="25" r="2.5" fill="#A0522D"></circle><circle cx="80" cy="25" r="2.5" fill="#A0522D"></circle><circle cx="20" cy="75" r="2.5" fill="#A0522D"></circle><circle cx="80" cy="75" r="2.5" fill="#A0522D"></circle><circle cx="35" cy="30" r="1.5" fill="#FFFFFF" opacity="0.5"></circle><circle cx="65" cy="30" r="1.5" fill="#FFFFFF" opacity="0.5"></circle><ellipse cx="50" cy="55" rx="8" ry="2" fill="#FFFFFF" opacity="0.3"></ellipse><text font-size="6.5" font-family="'Segoe UI', Arial, sans-serif" fill="#00000015" font-weight="600" letter-spacing="0.8px"><textPath href="#textPath-logo-kaex6uc6f" startOffset="50%" text-anchor="middle" dy="1">Sweet Connections</textPath></text><text font-size="6.5" font-family="'Segoe UI', Arial, sans-serif" fill="url(#textGradient-logo-kaex6uc6f)" font-weight="600" letter-spacing="0.8px"><textPath href="#textPath-logo-kaex6uc6f" startOffset="50%" text-anchor="middle">Sweet Connections</textPath></text></svg>